<svg xmlns="http://www.w3.org/2000/svg" viewBox="0 0 108 108" role="img" aria-label="Puzzle Kids launcher icon">
  <title>Puzzle Kids launcher icon</title>
  <metadata>Origin: PROJECT-OWNED. Created for Puzzle Kids from original vector geometry; no external artwork.</metadata>
  <rect width="108" height="108" rx="24" fill="#FFF4B8"/>
  <path fill="#2563EB" d="M25 37c0-6.63 5.37-12 12-12h11c0-6.08 4.92-11 11-11s11 4.92 11 11h1c6.63 0 12 5.37 12 12v10c6.08 0 11 4.92 11 11s-4.92 11-11 11v2c0 6.63-5.37 12-12 12H59c0-6.08-4.92-11-11-11s-11 4.92-11 11c-6.63 0-12-5.37-12-12V60c6.08 0 11-4.92 11-11s-4.92-11-11-11z"/>
  <path fill="#22C55E" d="M37 25h11c0-6.08 4.92-11 11-11s11 4.92 11 11h1c6.63 0 12 5.37 12 12v10c6.08 0 11 4.92 11 11H61c0-6.08-4.92-11-11-11s-11 4.92-11 11H25V37c0-6.63 5.37-12 12-12z"/>
  <path fill="#F97316" d="M39 58c0-6.08 4.92-11 11-11s11 4.92 11 11h33c0 6.08-4.92 11-11 11v2c0 6.63-5.37 12-12 12H59c0-6.08-4.92-11-11-11s-11 4.92-11 11c-6.63 0-12-5.37-12-12V60c6.08 0 11-4.92 11-11 0 0 3 0 3 9z"/>
  <circle cx="38" cy="35" r="4" fill="#fff" opacity=".85"/>
  <circle cx="72" cy="70" r="4" fill="#fff" opacity=".85"/>
</svg>
